<?xml version="1.0" encoding="utf-8"?>
<!-- Generator: Adobe Illustrator 25.2.3, SVG Export Plug-In . SVG Version: 6.00 Build 0)  -->
<svg version="1.1" id="Layer_1" xmlns="http://www.w3.org/2000/svg" xmlns:xlink="http://www.w3.org/1999/xlink" x="0px" y="0px"
	 viewBox="0 0 50 50" style="enable-background:new 0 0 50 50;" xml:space="preserve">
<style type="text/css">
	.st0{fill-rule:evenodd;clip-rule:evenodd;fill:#FF6B00;}
</style>
<g transform="translate(-101.671 -608.712)">
	<g transform="translate(101.671 608.712)">
		<path class="st0" d="M25.2,0.8c-3,0-5.4,2.4-5.4,5.4s2.4,5.4,5.4,5.4s5.4-2.4,5.4-5.4S28.2,0.8,25.2,0.8L25.2,0.8z M32.2,13.3v5
			l-4.4-5h-4.1v7.3h3v-4.8l4.2,4.8h4.2v-7.3L32.2,13.3L32.2,13.3z M13.6,13.3L13.6,13.3l-0.1,7.3h8.8V19h-5.6v-1.4h5V16l-4.9,0.1V15
			h5.3v-1.6L13.6,13.3L13.6,13.3z M44,13.3h-3.5l-5,7.3h3.2l0.8-1.4h5.1l0.8,1.4h3.4L44,13.3z M7.7,13.3H7.1c-0.6,0-1.1,0-1.7,0.1
			c-0.7,0.1-1.4,0.3-2,0.6c-0.6,0.2-1,0.8-1,1.4c0,0.3,0,0.5,0.2,0.8c0.1,0.1,0.1,0.2,0.2,0.3c0.5,0.4,1,0.7,1.7,0.8
			c0.8,0.2,1.6,0.4,2.4,0.5c0.5,0.1,1,0.2,1.5,0.3c0.2,0.1,0.4,0.2,0.6,0.3c0.1,0.1,0.1,0.3,0,0.4l0,0c-0.4,0.2-0.7,0.3-1,0.3
			c-0.5,0-1,0-1.5,0c-0.6-0.1-0.9-0.3-1-0.6c0-0.1,0-0.2,0-0.2v-0.2H5.3c-0.1,0-0.8,0-1.6,0H2.4v0.1c0,0.2,0,0.4,0.1,0.5
			c0.2,0.8,0.8,1.3,1.9,1.6c0.5,0.1,1,0.2,1.5,0.2s1.5,0,2.1,0c2.3-0.1,3.8-0.6,4.3-1.5c0.1-0.2,0.2-0.5,0.2-0.7
			c0-0.3-0.1-0.6-0.3-0.9c-0.3-0.4-0.7-0.7-1.2-0.8c-0.8-0.3-1.6-0.5-2.5-0.6c-0.7-0.1-1.4-0.2-2-0.4c-0.2-0.1-0.4-0.2-0.6-0.3
			c0-0.1,0-0.2,0-0.2c0.1-0.2,0.5-0.3,1-0.4c0.4,0,0.8,0,1.2,0c0.3,0,0.6,0.1,0.8,0.3C9,15.1,9,15.2,9.1,15.3c0,0.1,0,0.1,0.1,0.1
			c0,0,0.7,0,1.5,0h1.5v-0.1c0-0.2,0-0.3-0.1-0.5c-0.2-0.8-1.1-1.3-2.7-1.5C8.7,13.3,8.2,13.3,7.7,13.3L7.7,13.3z M42,15.1l1.6,2.6
			h-3.2L42,15.1z M23.2,22.1L0,22.2V26h7.5c7.2,0,7.5,0,7.7,0.1c0.3,0.2,0.5,0.5,0.5,0.8c0.1,0.6,0.2,0-5.6,10l-3.4,5.9l2.8,2.6
			L23.2,22.1L23.2,22.1z M26.8,22.2l13.8,23.2l2.8-2.6l-3.5-5.9c-5.8-9.9-5.7-9.4-5.6-10c0-0.3,0.2-0.7,0.5-0.8
			C35,26,35.3,26,42.5,26H50v-3.8H26.8L26.8,22.2z M24.9,26.2L12.4,47.5l3.3,1.5l7.1-12.2l1.2-2.1c0.2-0.3,0.3-0.4,0.9-0.4
			c0.4,0,0.7,0.1,0.9,0.4l1.3,2.2l7.3,12.2l3.3-1.9L24.9,26.2L24.9,26.2z"/>
	</g>
</g>
</svg>
